<svg width="11" height="19" viewBox="0 0 11 19" fill="none" xmlns="http://www.w3.org/2000/svg">
    <path
        d="M10.6328 10.1641L3.05469 17.7812C2.66406 18.1328 2.07812 18.1328 1.72656 17.7812L0.828125 16.8828C0.476562 16.5312 0.476562 15.9453 0.828125 15.5547L6.84375 9.5L0.828125 3.48438C0.476562 3.09375 0.476562 2.50781 0.828125 2.15625L1.72656 1.25781C2.07812 0.90625 2.66406 0.90625 3.05469 1.25781L10.6328 8.875C10.9844 9.22656 10.9844 9.8125 10.6328 10.1641Z"
        fill="#ED2126" />
    <path
        d="M10.6328 10.1641L9.9257 9.45695L9.92389 9.45878L10.6328 10.1641ZM3.05469 17.7812L3.72365 18.5245L3.74415 18.5061L3.76361 18.4865L3.05469 17.7812ZM0.828125 15.5547L0.118734 14.8499L0.10134 14.8674L0.0848309 14.8857L0.828125 15.5547ZM6.84375 9.5L7.55314 10.2048L8.25568 9.49771L7.55086 8.79289L6.84375 9.5ZM0.828125 3.48438L0.0848309 4.15334L0.102423 4.17289L0.121018 4.19148L0.828125 3.48438ZM3.05469 1.25781L3.76361 0.552526L3.74415 0.532971L3.72365 0.514518L3.05469 1.25781ZM10.6328 8.875L9.92389 9.58029L9.92571 9.58211L10.6328 8.875ZM9.92389 9.45878L2.34577 17.076L3.76361 18.4865L11.3417 10.8693L9.92389 9.45878ZM2.38572 17.038C2.3766 17.0462 2.37167 17.0449 2.37598 17.0449C2.37849 17.0449 2.38589 17.0454 2.39709 17.0498C2.40906 17.0546 2.42236 17.0628 2.43367 17.0741L1.01946 18.4884C1.78079 19.2497 2.97411 19.1991 3.72365 18.5245L2.38572 17.038ZM2.43367 17.0741L1.53523 16.1757L0.121018 17.5899L1.01946 18.4884L2.43367 17.0741ZM1.53523 16.1757C1.54655 16.187 1.55479 16.2003 1.55955 16.2123C1.56401 16.2235 1.56445 16.2309 1.56445 16.2334C1.56445 16.2377 1.56321 16.2328 1.57142 16.2237L0.0848309 14.8857C-0.589757 15.6353 -0.640318 16.8286 0.121018 17.5899L1.53523 16.1757ZM1.53752 16.2595L7.55314 10.2048L6.13436 8.79519L0.118734 14.8499L1.53752 16.2595ZM7.55086 8.79289L1.53523 2.77727L0.121018 4.19148L6.13664 10.2071L7.55086 8.79289ZM1.57142 2.81541C1.56321 2.80629 1.56445 2.80136 1.56445 2.80566C1.56445 2.80818 1.56401 2.81558 1.55955 2.82677C1.55479 2.83874 1.54655 2.85204 1.53523 2.86336L0.121018 1.44914C-0.640318 2.21048 -0.589757 3.4038 0.0848309 4.15334L1.57142 2.81541ZM1.53523 2.86336L2.43367 1.96492L1.01946 0.550706L0.121018 1.44914L1.53523 2.86336ZM2.43367 1.96492C2.42236 1.97623 2.40906 1.98448 2.39709 1.98924C2.38589 1.9937 2.37849 1.99414 2.37598 1.99414C2.37167 1.99414 2.3766 1.9929 2.38572 2.00111L3.72365 0.514518C2.97411 -0.16007 1.78079 -0.21063 1.01946 0.550706L2.43367 1.96492ZM2.34577 1.9631L9.92389 9.58029L11.3417 8.16971L3.76361 0.552526L2.34577 1.9631ZM9.92571 9.58211C9.90169 9.55809 9.89648 9.53252 9.89648 9.51953C9.89648 9.50655 9.90169 9.48097 9.92571 9.45696L11.3399 10.8712C12.082 10.1291 12.082 8.90998 11.3399 8.16789L9.92571 9.58211Z"
        fill="white" />
</svg>